<mxfile host="app.diagrams.net" modified="2023-04-12T19:48:38.240Z" agent="5.0 (Windows NT 10.0; Win64; x64) AppleWebKit/537.36 (KHTML, like Gecko) Chrome/112.0.0.0 Safari/537.36 Edg/112.0.1722.34" etag="epm6AcbhV6YS6D7_HkPC" version="20.8.1" type="github">
  <diagram name="Page-1" id="c7558073-3199-34d8-9f00-42111426c3f3">
    <mxGraphModel dx="993" dy="1750" grid="1" gridSize="10" guides="1" tooltips="1" connect="1" arrows="1" fold="1" page="1" pageScale="1" pageWidth="826" pageHeight="1169" background="none" math="0" shadow="0">
      <root>
        <mxCell id="0" />
        <mxCell id="1" parent="0" />
        <mxCell id="yR9kll7ob9uXELskLd4u-98" value="" style="edgeStyle=orthogonalEdgeStyle;rounded=0;orthogonalLoop=1;jettySize=auto;html=1;" edge="1" parent="1" source="yR9kll7ob9uXELskLd4u-96" target="yR9kll7ob9uXELskLd4u-97">
          <mxGeometry relative="1" as="geometry" />
        </mxCell>
        <mxCell id="yR9kll7ob9uXELskLd4u-96" value="Input Data" style="whiteSpace=wrap;html=1;aspect=fixed;" vertex="1" parent="1">
          <mxGeometry x="90" y="-500" width="90" height="90" as="geometry" />
        </mxCell>
        <mxCell id="yR9kll7ob9uXELskLd4u-101" value="" style="edgeStyle=orthogonalEdgeStyle;rounded=0;orthogonalLoop=1;jettySize=auto;html=1;" edge="1" parent="1" source="yR9kll7ob9uXELskLd4u-97" target="yR9kll7ob9uXELskLd4u-100">
          <mxGeometry relative="1" as="geometry" />
        </mxCell>
        <mxCell id="yR9kll7ob9uXELskLd4u-97" value="Data&lt;br&gt;Pre-processing" style="ellipse;whiteSpace=wrap;html=1;aspect=fixed;" vertex="1" parent="1">
          <mxGeometry x="250" y="-500" width="90" height="90" as="geometry" />
        </mxCell>
        <mxCell id="yR9kll7ob9uXELskLd4u-104" value="" style="edgeStyle=orthogonalEdgeStyle;rounded=0;orthogonalLoop=1;jettySize=auto;html=1;" edge="1" parent="1" source="yR9kll7ob9uXELskLd4u-100" target="yR9kll7ob9uXELskLd4u-103">
          <mxGeometry relative="1" as="geometry" />
        </mxCell>
        <mxCell id="yR9kll7ob9uXELskLd4u-100" value="Emotion/Mood&lt;br&gt;Detection" style="ellipse;whiteSpace=wrap;html=1;aspect=fixed;" vertex="1" parent="1">
          <mxGeometry x="420" y="-500" width="90" height="90" as="geometry" />
        </mxCell>
        <mxCell id="yR9kll7ob9uXELskLd4u-106" value="" style="edgeStyle=orthogonalEdgeStyle;rounded=0;orthogonalLoop=1;jettySize=auto;html=1;" edge="1" parent="1" source="yR9kll7ob9uXELskLd4u-103" target="yR9kll7ob9uXELskLd4u-105">
          <mxGeometry relative="1" as="geometry" />
        </mxCell>
        <mxCell id="yR9kll7ob9uXELskLd4u-103" value="Recommendation&lt;br&gt;Systems" style="ellipse;whiteSpace=wrap;html=1;aspect=fixed;" vertex="1" parent="1">
          <mxGeometry x="415" y="-340" width="100" height="100" as="geometry" />
        </mxCell>
        <mxCell id="yR9kll7ob9uXELskLd4u-108" value="" style="edgeStyle=orthogonalEdgeStyle;rounded=0;orthogonalLoop=1;jettySize=auto;html=1;" edge="1" parent="1" source="yR9kll7ob9uXELskLd4u-105" target="yR9kll7ob9uXELskLd4u-107">
          <mxGeometry relative="1" as="geometry" />
        </mxCell>
        <mxCell id="yR9kll7ob9uXELskLd4u-105" value="Evaluation" style="whiteSpace=wrap;html=1;" vertex="1" parent="1">
          <mxGeometry x="225" y="-320" width="120" height="60" as="geometry" />
        </mxCell>
        <mxCell id="yR9kll7ob9uXELskLd4u-107" value="Continuous Improvement" style="whiteSpace=wrap;html=1;" vertex="1" parent="1">
          <mxGeometry x="25" y="-320" width="120" height="60" as="geometry" />
        </mxCell>
      </root>
    </mxGraphModel>
  </diagram>
</mxfile>
